<!DOCTYPE svg PUBLIC "-//W3C//DTD SVG 20010904//EN" "http://www.w3.org/TR/2001/REC-SVG-20010904/DTD/svg10.dtd">
<svg version="1.0" xmlns="http://www.w3.org/2000/svg" width="513px" height="512px" viewBox="0 0 5130 5120" preserveAspectRatio="xMidYMid meet">
<g id="layer101" fill="#173d4e" stroke="none">
 <path d="M1012 4898 c-8 -8 -12 -67 -12 -201 l0 -188 115 -199 c63 -110 115 -204 115 -209 0 -5 -21 -26 -46 -46 -76 -62 -221 -232 -307 -360 -452 -672 -460 -1561 -19 -2235 96 -147 173 -239 305 -366 610 -586 1526 -728 2292 -355 404 198 725 516 927 922 307 618 272 1383 -90 1966 -79 129 -167 238 -288 363 l-113 115 119 205 119 205 1 181 c0 163 -2 183 -18 197 -10 10 -29 17 -43 17 -13 0 -91 -40 -173 -88 l-149 -87 -110 -191 -111 -191 -100 48 c-545 256 -1174 254 -1740 -5 -43 -20 -81 -36 -85 -36 -4 0 -56 85 -116 189 l-109 189 -149 86 c-146 85 -190 99 -215 74z"/>
 </g>
<g id="layer102" fill="#41b276" stroke="none">
 <path d="M1012 4898 c-8 -8 -12 -67 -12 -201 l0 -188 115 -199 c63 -110 115 -204 115 -209 0 -5 -21 -26 -46 -46 -76 -62 -221 -232 -307 -360 -452 -672 -460 -1561 -19 -2235 96 -147 173 -239 305 -366 610 -586 1526 -728 2292 -355 623 304 1046 904 1125 1596 21 188 6 495 -32 655 -99 417 -283 748 -572 1029 l-86 83 120 208 120 208 0 179 c0 162 -2 182 -18 196 -10 10 -29 17 -43 17 -13 0 -91 -40 -173 -88 l-149 -87 -111 -192 -110 -191 -60 30 c-157 79 -367 147 -566 183 -126 23 -426 31 -561 16 -254 -29 -614 -141 -682 -212 -26 -28 -59 -24 -77 10 -8 16 -58 103 -109 193 l-95 164 -149 87 c-147 85 -190 100 -215 75z m1598 -1768 c26 -8 103 -78 312 -287 l278 -278 0 -423 c0 -469 2 -457 -67 -509 -36 -28 -39 -28 -195 -31 l-158 -4 0 -159 0 -159 -215 0 -215 0 0 160 0 160 -148 0 c-136 0 -153 2 -192 23 -30 16 -51 37 -67 67 -23 43 -23 44 -23 459 l0 416 273 272 c307 307 325 320 417 293z"/>
 <path d="M2504 2501 c-88 -22 -172 -101 -195 -184 -14 -53 -7 -143 16 -188 80 -159 291 -198 415 -77 113 108 115 266 7 374 -71 71 -154 96 -243 75z"/>
 </g>
<g id="layer103" fill="#49db88" stroke="none">
 <path d="M1012 4898 c-8 -8 -12 -67 -12 -201 l0 -188 115 -199 c63 -110 115 -204 115 -209 0 -5 -21 -26 -46 -46 -76 -62 -221 -232 -307 -360 -133 -198 -251 -470 -292 -670 -41 -201 -47 -258 -48 -445 -2 -215 10 -321 53 -500 56 -226 144 -430 268 -620 96 -147 173 -239 305 -366 610 -586 1526 -728 2292 -355 623 304 1046 904 1125 1596 15 131 12 356 -5 492 -55 418 -245 819 -534 1126 -61 65 -134 126 -117 98 7 -10 4 -11 -13 -1 -33 17 -35 34 -8 77 13 21 35 58 49 83 14 25 35 62 47 83 11 20 30 54 42 75 12 20 25 42 29 47 4 6 19 32 34 58 25 47 26 52 26 226 0 160 -2 180 -18 194 -25 23 -60 21 -102 -5 -19 -11 -60 -35 -90 -51 -149 -82 -171 -100 -210 -167 -93 -163 -182 -315 -184 -318 -2 -1 -24 9 -50 23 -68 36 -250 109 -334 135 -192 56 -437 85 -649 75 -177 -8 -201 -10 -210 -18 -3 -4 -19 -7 -35 -7 -17 0 -27 -5 -25 -12 1 -7 -5 -12 -12 -10 -8 2 -24 -1 -35 -7 -12 -5 -55 -17 -96 -27 -152 -35 -410 -139 -410 -166 0 -8 7 -23 15 -34 17 -23 19 -38 4 -28 -12 7 19 -50 83 -153 21 -34 38 -67 38 -72 0 -4 7 -14 15 -21 9 -7 22 -27 31 -45 8 -18 26 -38 39 -45 31 -17 31 -24 0 -38 -34 -16 -34 -16 -45 11 -6 12 -19 36 -30 52 -11 17 -27 44 -36 60 -8 17 -25 46 -37 67 -12 20 -35 58 -50 85 -15 26 -32 55 -38 63 -5 8 -14 26 -21 40 -7 14 -17 32 -24 40 -6 8 -23 35 -36 60 -14 25 -35 61 -46 80 -12 19 -28 49 -37 65 -8 17 -26 48 -39 70 -13 22 -37 64 -52 93 -16 28 -33 52 -38 52 -5 0 -17 6 -25 14 -9 8 -40 27 -69 42 -29 16 -69 39 -90 51 -20 13 -47 27 -59 32 -11 5 -24 15 -28 20 -9 15 -68 14 -83 -1z m2654 -1320 c4 -7 -7 0 -23 15 -30 28 -30 29 -15 60 l16 32 7 -47 c4 -26 11 -53 15 -60z m-1563 -85 c5 -26 4 -26 -9 -9 -7 10 -11 23 -8 27 8 14 11 11 17 -18z m196 -315 c8 3 11 0 7 -6 -3 -6 7 -16 24 -24 16 -7 30 -15 30 -18 0 -3 10 -6 22 -7 11 -1 24 -6 27 -12 8 -13 46 -7 93 13 71 31 129 18 183 -41 32 -35 35 -36 70 -26 l36 12 -15 -24 c-9 -14 -16 -28 -16 -31 0 -9 302 -314 310 -314 3 0 19 23 35 50 23 40 31 47 36 33 3 -10 0 -45 -8 -78 l-14 -60 45 -42 c40 -39 50 -43 95 -43 56 0 76 -15 33 -24 l-27 -7 -3 -115 c-2 -75 1 -120 8 -129 13 -16 22 -369 10 -395 -12 -26 -42 -84 -61 -118 -11 -18 -19 -40 -19 -50 0 -26 -26 -59 -73 -93 -36 -26 -47 -29 -122 -29 l-83 0 -35 -74 c-22 -46 -48 -84 -71 -102 -34 -27 -36 -32 -36 -86 l0 -58 -215 0 -215 0 0 83 c0 46 -3 118 -6 160 l-7 75 -156 4 c-171 3 -180 6 -234 75 -22 27 -22 32 -25 458 l-3 430 224 224 224 223 -23 42 c-13 22 -31 55 -39 71 -8 17 -22 41 -31 55 -9 14 -10 18 -3 9 8 -9 20 -14 28 -11z"/>
 <path d="M2503 2477 c-23 -17 -41 -36 -39 -42 1 -5 -3 -16 -11 -23 -7 -8 -13 -35 -13 -65 1 -128 98 -225 234 -233 44 -2 65 1 78 13 9 8 21 12 27 9 15 -9 38 32 46 81 17 108 -74 244 -187 278 -72 21 -87 19 -135 -18z"/>
 </g>
<g id="layer104" fill="#cee6f4" stroke="none">
 <path d="M1012 4898 c-9 -9 -12 -67 -12 -202 l1 -191 123 -210 c138 -235 485 -834 734 -1265 90 -157 171 -296 179 -309 l15 -24 154 154 c85 85 154 157 154 162 0 6 -155 280 -277 490 -7 11 89 52 189 81 223 64 468 52 688 -35 44 -18 80 -35 80 -39 0 -4 -57 -106 -126 -226 -69 -120 -133 -231 -141 -247 l-15 -29 153 -154 c84 -85 156 -154 159 -154 4 0 75 119 159 265 123 213 156 263 167 254 26 -21 112 -165 143 -238 40 -94 69 -205 76 -290 3 -36 8 -81 11 -98 l5 -33 209 0 c115 0 211 3 213 8 9 17 -15 235 -38 334 -54 244 -194 505 -361 678 l-44 45 133 230 c74 127 145 248 159 270 13 22 36 60 50 85 14 25 35 62 47 83 11 20 30 54 42 75 12 20 25 42 29 47 4 6 19 32 34 58 25 47 26 52 26 226 0 160 -2 180 -18 194 -25 23 -60 21 -102 -5 -19 -11 -60 -35 -90 -51 -149 -82 -171 -100 -210 -167 -20 -36 -62 -108 -92 -160 -31 -52 -65 -113 -76 -134 -12 -22 -79 -140 -149 -263 -92 -161 -132 -222 -143 -219 -8 2 -65 25 -127 51 -61 25 -162 58 -225 73 -105 25 -129 27 -333 27 -178 0 -236 -4 -305 -19 -102 -22 -263 -77 -340 -116 l-56 -28 -120 206 c-65 113 -135 235 -155 271 -20 37 -45 82 -57 101 -12 19 -28 49 -37 65 -8 17 -26 48 -39 70 -13 22 -37 64 -52 93 -16 28 -33 52 -38 52 -5 0 -17 6 -25 14 -9 8 -40 27 -69 42 -29 16 -69 39 -90 51 -20 13 -47 27 -59 32 -11 5 -24 15 -28 20 -9 15 -68 14 -83 -1z"/>
 </g>

</svg>