<?xml version="1.0" encoding="UTF-8"?>
<svg xmlns="http://www.w3.org/2000/svg" xmlns:xlink="http://www.w3.org/1999/xlink" width="100pt" height="141pt" viewBox="0 0 100 141" version="1.1">
<g id="surface1">
<path style=" stroke:none;fill-rule:nonzero;fill:rgb(0%,0%,0%);fill-opacity:1;" d="M 25.019531 8.304688 C 22.898438 8.96875 20.851562 10.769531 19.8125 12.867188 L 19.164062 14.199219 L 19.164062 127.195312 L 19.832031 128.445312 C 20.714844 130.171875 22.445312 131.835938 24.117188 132.636719 L 25.453125 133.265625 L 74.585938 133.265625 L 75.746094 132.714844 C 77.0625 132.109375 77.121094 132.089844 76.925781 132.441406 C 76.847656 132.578125 76.867188 132.617188 76.964844 132.519531 C 77.0625 132.421875 77.140625 132.246094 77.140625 132.128906 C 77.140625 132.03125 77.261719 131.894531 77.417969 131.835938 C 77.59375 131.777344 77.632812 131.835938 77.515625 132.011719 C 77.378906 132.246094 77.417969 132.246094 77.691406 132.011719 C 77.871094 131.875 77.988281 131.679688 77.929688 131.621094 C 77.890625 131.542969 78.261719 131.070312 78.753906 130.601562 C 79.246094 130.132812 79.578125 129.875 79.5 130.035156 C 79.34375 130.289062 79.363281 130.289062 79.675781 130.054688 C 79.855469 129.894531 80.109375 129.582031 80.207031 129.367188 C 80.367188 129.035156 80.328125 129.054688 79.992188 129.445312 C 79.480469 130.035156 79.519531 129.953125 80.386719 128.171875 L 81.074219 126.800781 L 81.074219 14.394531 L 80.425781 13.082031 C 79.578125 11.359375 77.832031 9.617188 76.101562 8.773438 L 74.785156 8.128906 L 50.316406 8.089844 C 30.464844 8.066406 25.6875 8.109375 25.019531 8.304688 Z M 56.09375 11.671875 C 56.269531 11.828125 56.40625 12.042969 56.40625 12.140625 C 56.40625 12.238281 56.269531 12.453125 56.09375 12.613281 C 55.835938 12.886719 55.011719 12.925781 50.019531 12.925781 C 45.027344 12.925781 44.203125 12.886719 43.945312 12.613281 C 43.769531 12.453125 43.632812 12.238281 43.632812 12.140625 C 43.632812 12.042969 43.769531 11.828125 43.945312 11.671875 C 44.203125 11.398438 45.027344 11.359375 50.019531 11.359375 C 55.011719 11.359375 55.835938 11.398438 56.09375 11.671875 Z M 79.402344 71.480469 L 79.402344 122.589844 L 21.226562 122.589844 L 21.226562 20.367188 L 79.402344 20.367188 Z M 56.625 125.3125 C 57.390625 126.058594 57.390625 126.078125 57.390625 127.605469 C 57.390625 129.269531 57.054688 130.054688 56.171875 130.542969 C 55.523438 130.914062 44.515625 130.914062 43.867188 130.542969 C 42.984375 130.054688 42.648438 129.269531 42.648438 127.605469 C 42.648438 126.078125 42.648438 126.058594 43.414062 125.3125 L 44.183594 124.550781 L 55.855469 124.550781 Z M 56.625 125.3125 "/>
<path style=" stroke:none;fill-rule:nonzero;fill:rgb(0%,0%,0%);fill-opacity:1;" d="M 44.164062 11.691406 C 43.90625 11.925781 44.023438 12.496094 44.339844 12.613281 C 44.8125 12.789062 55.484375 12.75 55.777344 12.554688 C 55.933594 12.453125 56.015625 12.21875 55.976562 12.023438 C 55.914062 11.671875 55.601562 11.652344 50.097656 11.59375 C 46.914062 11.574219 44.242188 11.613281 44.164062 11.691406 Z M 44.164062 11.691406 "/>
<path style=" stroke:none;fill-rule:nonzero;fill:rgb(0%,0%,0%);fill-opacity:1;" d="M 45.402344 56.203125 C 45.402344 56.378906 45.675781 56.851562 46.03125 57.261719 C 46.519531 57.847656 46.582031 58.046875 46.363281 58.183594 C 46.207031 58.28125 46.03125 58.359375 45.972656 58.359375 C 45.910156 58.359375 45.480469 58.730469 45.027344 59.179688 C 44.125 60.121094 43.238281 61.707031 43.238281 62.410156 L 43.238281 62.863281 L 50.511719 62.863281 C 55.621094 62.863281 57.78125 62.804688 57.78125 62.648438 C 57.78125 62.53125 57.527344 61.882812 57.214844 61.21875 C 56.703125 60.121094 55.71875 58.945312 54.65625 58.164062 C 54.265625 57.867188 54.265625 57.867188 54.835938 57.027344 C 55.484375 56.105469 55.523438 56.007812 55.226562 56.007812 C 55.128906 56.007812 54.816406 56.359375 54.539062 56.792969 C 53.988281 57.652344 53.753906 57.710938 52.574219 57.28125 C 51.414062 56.871094 49.332031 56.910156 47.996094 57.378906 C 46.875 57.769531 46.875 57.769531 46.621094 57.398438 C 46.011719 56.515625 45.402344 55.910156 45.402344 56.203125 Z M 45.402344 56.203125 "/>
<path style=" stroke:none;fill-rule:nonzero;fill:rgb(0%,0%,0%);fill-opacity:1;" d="M 39.742188 63.839844 C 39.328125 64.234375 39.308594 64.390625 39.308594 68.328125 C 39.308594 72.320312 39.308594 72.398438 39.761719 72.8125 C 40.410156 73.417969 41.351562 73.378906 41.960938 72.734375 C 42.453125 72.203125 42.453125 72.164062 42.453125 68.308594 L 42.453125 64.410156 L 41.941406 63.941406 C 41.292969 63.332031 40.332031 63.292969 39.742188 63.839844 Z M 39.742188 63.839844 "/>
<path style=" stroke:none;fill-rule:nonzero;fill:rgb(0%,0%,0%);fill-opacity:1;" d="M 59.019531 63.78125 C 58.570312 64.078125 58.570312 64.15625 58.570312 68.285156 C 58.570312 72.417969 58.570312 72.496094 59.019531 72.871094 C 59.628906 73.378906 60.574219 73.339844 61.085938 72.792969 C 61.496094 72.359375 61.515625 72.164062 61.515625 68.285156 C 61.515625 64.390625 61.496094 64.234375 61.085938 63.839844 C 60.574219 63.371094 59.628906 63.351562 59.019531 63.78125 Z M 59.019531 63.78125 "/>
<path style=" stroke:none;fill-rule:nonzero;fill:rgb(0%,0%,0%);fill-opacity:1;" d="M 43.042969 69.816406 C 43.042969 75.53125 43.0625 75.808594 43.433594 76.179688 C 43.730469 76.472656 44.085938 76.570312 44.910156 76.570312 L 45.992188 76.570312 L 45.992188 78.804688 C 45.992188 80.566406 46.070312 81.171875 46.34375 81.644531 C 46.660156 82.230469 46.738281 82.25 47.660156 82.210938 C 48.976562 82.132812 49.136719 81.800781 49.136719 78.863281 L 49.136719 76.570312 L 51.691406 76.570312 L 51.691406 78.921875 C 51.691406 81.839844 51.886719 82.25 53.164062 82.25 C 54.539062 82.25 54.636719 82.035156 54.636719 79.097656 L 54.636719 76.570312 L 55.777344 76.570312 C 56.484375 76.570312 57.074219 76.453125 57.351562 76.257812 C 57.78125 75.964844 57.78125 75.945312 57.78125 69.894531 L 57.78125 63.839844 L 43.042969 63.839844 Z M 43.042969 69.816406 "/>
<path style=" stroke:none;fill-rule:nonzero;fill:rgb(0%,0%,0%);fill-opacity:1;" d="M 44.085938 125.058594 C 43.296875 125.449219 42.847656 126.390625 42.847656 127.664062 C 42.847656 128.976562 43.257812 129.933594 44.003906 130.308594 C 44.871094 130.757812 55.148438 130.777344 56.015625 130.328125 C 56.820312 129.914062 57.195312 129.09375 57.195312 127.78125 C 57.195312 126.371094 56.761719 125.449219 55.914062 125.058594 C 54.953125 124.609375 45.007812 124.609375 44.085938 125.058594 Z M 44.085938 125.058594 "/>
<path style=" stroke:none;fill-rule:nonzero;fill:rgb(0%,0%,0%);fill-opacity:1;" d="M 81.464844 70.792969 C 81.464844 101.382812 81.484375 113.878906 81.503906 98.542969 C 81.542969 83.210938 81.542969 58.183594 81.503906 42.925781 C 81.484375 27.671875 81.464844 40.203125 81.464844 70.792969 Z M 81.464844 70.792969 "/>
<path style=" stroke:none;fill-rule:nonzero;fill:rgb(0%,0%,0%);fill-opacity:1;" d="M 38.285156 133.695312 C 44.929688 133.734375 55.71875 133.734375 62.265625 133.695312 C 68.828125 133.675781 63.402344 133.65625 50.214844 133.65625 C 37.027344 133.65625 31.664062 133.675781 38.285156 133.695312 Z M 38.285156 133.695312 "/>
</g>
</svg>
