<?xml version="1.0" encoding="UTF-8"?>
<svg xmlns="http://www.w3.org/2000/svg" xmlns:xlink="http://www.w3.org/1999/xlink" width="100pt" height="100pt" viewBox="0 0 100 100" version="1.1">
<g id="surface1">
<path style=" stroke:none;fill-rule:nonzero;fill:rgb(0%,0%,0%);fill-opacity:1;" d="M 76.5625 20.957031 C 76.289062 21.09375 75.917969 21.503906 75.742188 21.875 C 75.410156 22.519531 75.390625 24.257812 75.390625 49.765625 C 75.390625 79.082031 75.351562 77.851562 76.386719 78.59375 C 76.796875 78.867188 77.988281 78.90625 87.851562 78.90625 L 98.867188 78.90625 L 100 77.773438 L 100 50 C 100 19.824219 100.058594 21.445312 98.925781 20.9375 C 98.183594 20.585938 77.246094 20.605469 76.5625 20.957031 Z M 98.046875 31.152344 L 98.046875 33.203125 L 77.539062 33.203125 L 77.539062 29.101562 L 98.046875 29.101562 Z M 98.007812 39.394531 L 97.949219 41.503906 L 87.753906 41.5625 L 77.539062 41.601562 L 77.539062 37.304688 L 98.066406 37.304688 Z M 88.789062 57.109375 C 89.882812 58.027344 89.179688 59.960938 87.773438 59.960938 C 87.109375 59.960938 86.132812 58.964844 86.132812 58.300781 C 86.132812 57.636719 87.109375 56.640625 87.773438 56.640625 C 88.046875 56.640625 88.496094 56.855469 88.789062 57.109375 Z M 88.789062 57.109375 "/>
<path style=" stroke:none;fill-rule:nonzero;fill:rgb(0%,0%,0%);fill-opacity:1;" d="M 0.839844 21.09375 C 0.605469 21.191406 0.332031 21.445312 0.214844 21.660156 C 0.0585938 21.933594 0 29.082031 0 44.804688 C 0 67.324219 0 67.578125 0.390625 67.96875 C 0.78125 68.359375 1.035156 68.359375 13.378906 68.359375 L 25.976562 68.359375 L 25.976562 76.367188 L 20.507812 76.367188 C 15.292969 76.367188 15.019531 76.386719 14.648438 76.757812 C 14.140625 77.265625 14.140625 78.007812 14.648438 78.515625 C 15.039062 78.90625 15.292969 78.90625 33.75 78.90625 C 52.128906 78.90625 52.480469 78.90625 52.832031 78.515625 C 53.261719 78.027344 53.261719 77.246094 52.832031 76.757812 C 52.5 76.386719 52.207031 76.367188 47.03125 76.367188 L 41.601562 76.367188 L 41.601562 68.359375 L 54.179688 68.359375 C 67.832031 68.359375 67.226562 68.398438 67.480469 67.324219 C 67.539062 67.089844 67.558594 56.71875 67.539062 44.296875 C 67.480469 22.890625 67.460938 21.679688 67.128906 21.347656 C 66.796875 21.015625 65.175781 20.996094 34.023438 20.957031 C 15.390625 20.9375 1.09375 20.996094 0.839844 21.09375 Z M 64.84375 44.726562 L 64.84375 65.820312 L 2.539062 65.820312 L 2.539062 23.632812 L 64.84375 23.632812 Z M 64.84375 44.726562 "/>
</g>
</svg>
