<?xml version="1.0" encoding="utf-8"?>
<!-- Svg Vector Icons : http://www.onlinewebfonts.com/icon -->
<!DOCTYPE svg PUBLIC "-//W3C//DTD SVG 1.1//EN" "http://www.w3.org/Graphics/SVG/1.1/DTD/svg11.dtd">
<svg version="1.1" xmlns="http://www.w3.org/2000/svg" xmlns:xlink="http://www.w3.org/1999/xlink" x="0px" y="0px" viewBox="0 0 1000 1000" enable-background="new 0 0 1000 1000" xml:space="preserve">
<metadata> Svg Vector Icons : http://www.onlinewebfonts.com/icon </metadata>
<g><g transform="translate(0.000000,511.000000) scale(0.100000,-0.100000)"><path d="M2253.6,4670.1c-863.4-135.9-1569.9-779.2-1784.3-1621.6c-61.2-245-80.4-526.5-40.2-620.3c95.7-229.7,449.9-250.8,549.5-32.5c21.1,45.9,38.3,124.4,38.3,181.9c0,222.1,91.9,541.8,212.5,746.6c90,151.2,323.6,392.5,484.4,499.7c264.2,176.1,614.6,268,926.6,247c218.3-15.3,358-55.5,568.6-157c314-155.1,553.3-394.4,708.4-708.4c99.6-204.9,139.8-354.2,160.8-591.6c19.1-214.4,53.6-289.1,160.8-338.9c101.5-45.9,193.4-45.9,296.7,1.9c151.3,68.9,185.7,224,128.3,593.5c-132.1,876.8-800.2,1579.4-1684.7,1772.8C2816.4,4679.7,2408.7,4693.1,2253.6,4670.1z"/><path d="M2265.1,3732c-522.7-141.7-903.6-626-903.6-1150.6c0-118.7,7.6-157,44-210.6c101.5-153.2,333.1-178,471-49.8c57.4,55.5,76.6,107.2,97.7,275.7c30.6,231.6,145.5,402,344.6,505.4c67,34.5,116.8,45.9,229.7,45.9c178,0,319.7-61.3,440.3-193.4c101.5-111,149.3-218.3,170.4-386.7c23-174.2,61.3-247,160.8-292.9c103.4-45.9,193.4-45.9,296.7,1.9c120.6,55.5,166.6,164.6,151.3,367.6c-23,285.3-145.5,547.5-358,762c-231.7,231.7-484.4,342.7-813.7,356.1C2446.9,3768.4,2374.2,3762.7,2265.1,3732z"/><path d="M2399.1,2813.1c-63.2-28.7-90-55.5-118.7-118.7c-36.4-78.5-38.3-137.8-38.3-1646.5V-516.2l-664.3-5.7c-658.6-7.7-668.2-7.7-790.7-55.5c-308.2-118.7-518.8-331.2-637.5-645.2c-40.2-105.3-42.1-141.7-47.9-1058.7C96-3345.8,97.9-3382.2,224.2-3621.5C348.7-3857,588-4058,829.2-4126.9c99.5-28.7,130.2-47.9,174.2-109.1c61.3-86.2,199.1-180,310.1-208.7c118.7-32.5,310.2-13.4,419.3,40.2c49.8,26.8,134,91.9,183.8,147.4l93.8,101.5h2992.3l2992.3-1.9l53.6-76.6c57.4-84.2,195.3-180,300.6-208.7c86.2-24.9,258.5-24.9,344.6,0c103.4,28.7,243.1,124.4,300.6,206.8c44,61.3,74.7,80.4,174.2,109.1c241.2,68.9,480.5,269.9,606.9,509.2C9894.2-3391.7,9900-3332.4,9900-2335c0,827.1-1.9,901.7-38.3,1039.6c-86.2,338.9-312.1,585.8-650.9,719.9l-124.4,47.9L5971.5-522l-3116.8,3.8v1566c0,1508.6-1.9,1568-38.3,1646.5c-42.1,91.9-151.3,157-268,157C2512,2851.4,2445,2834.1,2399.1,2813.1z M9059.5-1184.4c74.7-38.3,118.7-78.5,160.8-147.4l57.4-91.9v-920.9v-920.8l-53.6-90c-57.4-99.6-141.7-170.4-241.2-204.9c-93.8-30.6-7874.2-30.6-7968.1,0c-99.5,34.5-183.8,105.3-241.2,204.9l-53.6,90v920.8v920.9l57.4,91.9c42.1,68.9,86.2,109.1,160.8,147.4l101.5,53.6h3959.1h3959.1L9059.5-1184.4z"/><path d="M1480.1-2088c-206.8-93.8-206.8-442.3,0-536.1c78.5-36.4,134-38.3,1221.4-38.3s1142.9,1.9,1221.4,38.3c206.8,93.8,206.8,442.2,0,536.1c-78.5,36.4-134,38.3-1221.4,38.3S1558.6-2051.6,1480.1-2088z"/><path d="M6094-2082.3c-195.3-95.7-235.5-338.9-78.5-488.2c130.2-124.4,292.9-122.5,419.3,3.8c114.9,114.9,126.3,266.1,28.7,392.5C6375.4-2057.4,6220.4-2019.1,6094-2082.3z"/><path d="M7001.5-2093.7c-99.5-55.5-147.4-124.4-158.9-227.8c-34.5-308.2,356.1-459.5,545.6-210.6c74.7,97.6,74.7,254.6-1.9,354.2C7284.8-2045.9,7141.2-2013.3,7001.5-2093.7z"/><path d="M7931.9-2082.3c-195.3-95.7-233.6-331.2-80.4-484.4c128.3-128.3,292.9-128.3,421.2,0c114.9,114.9,126.3,266.1,28.7,392.5C8213.3-2057.4,8058.3-2019.1,7931.9-2082.3z"/></g></g>
</svg>