<?xml version="1.0" encoding="UTF-8"?>
<svg xmlns="http://www.w3.org/2000/svg" xmlns:xlink="http://www.w3.org/1999/xlink" width="100pt" height="100pt" viewBox="0 0 100 100" version="1.1">
<g id="surface1">
<path style=" stroke:none;fill-rule:nonzero;fill:rgb(0%,0%,0%);fill-opacity:1;" d="M 29.589844 0.273438 C 27.421875 0.957031 25.878906 2.304688 24.921875 4.296875 L 24.316406 5.566406 L 24.316406 94.433594 L 24.921875 95.703125 C 25.683594 97.324219 26.894531 98.535156 28.515625 99.296875 L 29.785156 99.902344 L 70.410156 99.902344 L 71.699219 99.277344 C 73.164062 98.554688 74.316406 97.402344 75.136719 95.859375 L 75.683594 94.824219 L 75.683594 5.175781 L 75.136719 4.140625 C 74.316406 2.597656 73.164062 1.445312 71.699219 0.722656 L 70.410156 0.0976562 L 50.390625 0.0585938 C 34.570312 0.0390625 30.214844 0.078125 29.589844 0.273438 Z M 38.320312 3.691406 C 38.652344 3.964844 38.886719 4.433594 39.042969 5.214844 C 39.394531 6.71875 39.726562 7.363281 40.429688 7.714844 C 40.9375 7.988281 42.265625 8.007812 50.488281 7.96875 L 59.960938 7.910156 L 60.449219 7.402344 C 60.78125 7.070312 61.09375 6.40625 61.328125 5.46875 C 61.523438 4.6875 61.835938 3.90625 62.011719 3.730469 C 62.265625 3.476562 62.929688 3.398438 65.742188 3.359375 C 69.023438 3.300781 69.179688 3.320312 70.195312 3.769531 C 70.957031 4.121094 71.425781 4.492188 71.816406 5.097656 L 72.363281 5.9375 L 72.363281 94.0625 L 71.816406 94.902344 C 71.425781 95.46875 70.957031 95.878906 70.253906 96.210938 L 69.238281 96.679688 L 50.195312 96.679688 C 36.835938 96.679688 30.917969 96.621094 30.371094 96.464844 C 29.355469 96.171875 28.046875 94.863281 27.753906 93.847656 C 27.460938 92.753906 27.441406 7.265625 27.753906 6.171875 C 28.027344 5.195312 29.179688 3.964844 30.175781 3.613281 C 30.722656 3.417969 31.953125 3.339844 34.394531 3.320312 C 37.519531 3.320312 37.890625 3.359375 38.320312 3.691406 Z M 38.320312 3.691406 "/>
<path style=" stroke:none;fill-rule:nonzero;fill:rgb(0%,0%,0%);fill-opacity:1;" d="M 52.050781 42.265625 C 50.996094 42.714844 50 44.277344 50 45.449219 C 50 46.210938 52.070312 45.097656 52.675781 44.003906 C 52.890625 43.59375 53.105469 43.085938 53.125 42.871094 C 53.222656 41.894531 53.066406 41.816406 52.050781 42.265625 Z M 52.050781 42.265625 "/>
<path style=" stroke:none;fill-rule:nonzero;fill:rgb(0%,0%,0%);fill-opacity:1;" d="M 46.09375 46.113281 C 44.667969 46.679688 43.554688 48.59375 43.554688 50.46875 C 43.574219 52.832031 44.785156 55.898438 46.230469 57.246094 C 47.1875 58.125 47.519531 58.164062 49.453125 57.617188 C 50.234375 57.382812 50.527344 57.382812 51.210938 57.597656 C 51.679688 57.734375 52.421875 57.890625 52.871094 57.949219 C 53.632812 58.046875 53.75 57.988281 54.53125 57.1875 C 55 56.71875 55.625 55.78125 55.957031 55.117188 L 56.523438 53.886719 L 55.898438 53.378906 C 55.058594 52.734375 54.492188 51.582031 54.492188 50.546875 C 54.492188 49.53125 55.058594 48.222656 55.683594 47.792969 C 56.113281 47.480469 56.113281 47.460938 55.742188 47.050781 C 54.824219 46.015625 52.871094 45.625 51.503906 46.191406 C 50.625 46.5625 49.472656 46.5625 48.828125 46.191406 C 48.261719 45.878906 46.816406 45.839844 46.09375 46.113281 Z M 46.09375 46.113281 "/>
</g>
</svg>
