<!DOCTYPE svg PUBLIC "-//W3C//DTD SVG 20010904//EN" "http://www.w3.org/TR/2001/REC-SVG-20010904/DTD/svg10.dtd">
<svg version="1.0" xmlns="http://www.w3.org/2000/svg" width="500px" height="500px" viewBox="0 0 5000 5000" preserveAspectRatio="xMidYMid meet">
<g id="layer101" fill="#424242" stroke="none">
<path d="M2615 4667 c-89 -30 -124 -48 -156 -84 -56 -59 -86 -162 -70 -234 5 -21 6 -39 2 -39 -3 0 -388 61 -856 135 -467 73 -850 133 -851 132 -1 -1 -108 -699 -238 -1552 -130 -852 -238 -1559 -241 -1571 -5 -22 -36 -17 2710 -436 330 -50 601 -93 603 -94 2 -1 -7 -26 -19 -54 -20 -46 -29 -56 -73 -75 -129 -57 -301 -91 -548 -107 l-178 -12 0 -28 c0 -26 5 -29 83 -53 45 -13 109 -30 142 -37 l60 -13 -50 -6 c-27 -4 -114 -8 -192 -8 l-143 -1 0 -36 c0 -34 3 -36 65 -65 153 -69 376 -108 665 -116 180 -5 220 -3 329 16 219 37 546 163 613 236 15 17 46 51 68 77 47 53 93 78 145 78 30 0 44 -7 70 -34 l33 -35 103 36 c57 20 105 37 106 38 1 1 -37 116 -86 256 -53 151 -94 255 -102 256 -8 2 -57 -10 -109 -26 l-94 -28 -2 -37 c-2 -67 -66 -112 -148 -103 -58 6 -129 36 -123 51 2 6 11 61 20 121 9 61 109 693 223 1404 113 712 206 1306 207 1320 l2 24 -705 112 c-388 62 -725 116 -749 121 l-44 9 -52 183 c-45 159 -56 187 -86 218 -79 83 -202 105 -334 61z"/>
</g>
<g id="layer102" fill="#0277bd" stroke="none">
<path d="M680 4571 c0 -14 -468 -3088 -475 -3117 -5 -22 -36 -17 2710 -436 330 -50 601 -93 603 -94 2 -1 -7 -26 -19 -54 -20 -46 -29 -56 -73 -75 -129 -57 -301 -91 -548 -107 l-178 -12 0 -28 c0 -26 5 -29 83 -53 45 -13 109 -30 142 -37 l60 -13 -50 -6 c-27 -4 -114 -8 -192 -8 l-143 -1 0 -36 c0 -34 3 -36 65 -65 153 -69 376 -108 665 -116 180 -5 220 -3 329 16 219 37 546 163 613 236 15 17 46 51 68 77 47 53 93 78 145 78 30 0 44 -7 70 -34 l33 -35 103 36 c57 20 105 37 106 38 1 1 -37 116 -86 256 -53 151 -94 255 -102 256 -8 2 -57 -10 -109 -26 l-94 -28 -2 -37 c-2 -67 -66 -112 -148 -103 -58 6 -129 36 -123 51 2 6 11 61 20 121 9 61 109 693 223 1404 113 712 206 1306 207 1320 l2 24 -705 112 c-388 62 -726 117 -752 122 -27 6 -48 10 -48 9 0 -2 14 -52 31 -112 17 -60 33 -118 35 -130 2 -12 28 -106 58 -210 29 -104 73 -259 96 -344 23 -85 75 -272 115 -415 152 -544 195 -700 195 -707 0 -8 -290 -102 -296 -95 -2 2 -206 476 -454 1052 -247 576 -453 1052 -457 1056 -5 5 -382 67 -838 139 -457 72 -842 133 -857 136 -17 3 -28 1 -28 -5z"/>
</g>
<g id="layer103" fill="#0aa4ed" stroke="none">
<path d="M2475 4599 c-20 -18 -40 -41 -46 -53 -6 -11 1 -7 15 11 15 17 39 41 54 52 15 11 24 21 20 21 -4 0 -23 -14 -43 -31z"/>
<path d="M680 4571 c0 -14 -468 -3088 -475 -3117 -5 -22 -36 -17 2710 -436 330 -50 601 -93 603 -94 2 -1 -7 -26 -19 -54 -20 -46 -29 -56 -73 -75 -129 -57 -301 -91 -548 -107 l-178 -12 0 -28 c0 -26 5 -29 83 -53 45 -13 109 -30 142 -37 l60 -13 -50 -6 c-27 -4 -114 -8 -192 -8 l-143 -1 0 -36 c0 -34 3 -36 65 -65 153 -69 376 -108 665 -116 180 -5 220 -3 329 16 219 37 546 163 613 236 15 17 46 51 68 77 47 53 93 78 145 78 30 0 44 -7 70 -34 l33 -35 103 36 c57 20 105 37 106 38 1 1 -37 116 -86 256 -53 151 -94 255 -102 256 -8 2 -57 -10 -109 -26 l-94 -28 -2 -37 c-3 -95 -128 -135 -241 -77 -23 11 -43 18 -45 15 -10 -9 -97 77 -133 131 l-36 55 35 216 c19 119 37 218 39 220 6 7 131 -351 138 -396 l6 -45 2 42 c0 23 93 617 206 1320 113 703 207 1291 208 1307 l2 29 -650 103 c-357 57 -654 103 -660 103 -5 -1 1 -4 15 -8 21 -6 28 -20 54 -109 16 -56 27 -104 25 -107 -2 -2 -49 3 -104 10 -55 8 -105 15 -111 15 -7 0 0 -41 19 -109 34 -124 19 -113 170 -132 l97 -12 11 -41 c6 -23 26 -97 45 -166 38 -139 38 -140 24 -140 -6 0 -48 -15 -95 -34 -55 -21 -86 -29 -89 -22 -13 30 10 -73 41 -183 40 -146 51 -168 92 -199 l31 -22 39 19 c21 11 52 31 68 45 l30 25 36 -137 c19 -75 34 -138 33 -140 -3 -2 -93 9 -183 24 -26 4 -33 1 -33 -11 0 -9 18 -82 41 -163 40 -142 58 -193 59 -164 0 10 13 12 54 7 62 -8 57 -14 76 105 7 41 15 81 19 88 4 7 26 -56 49 -140 23 -84 52 -186 64 -225 l22 -73 -33 -212 c-19 -117 -36 -216 -40 -220 -3 -4 -44 113 -90 260 -46 147 -87 271 -91 275 -4 5 -73 -12 -154 -38 -80 -25 -150 -44 -154 -41 -5 3 -39 78 -77 168 -150 360 -198 474 -210 493 -7 11 -106 241 -220 510 -294 694 -396 929 -407 940 -2 2 -377 63 -833 135 -457 72 -842 133 -857 136 -17 3 -28 1 -28 -5z"/>
<path d="M3089 4181 c3 -18 6 -21 9 -9 2 9 13 18 25 20 18 3 16 5 -9 9 -28 5 -30 3 -25 -20z"/>
<path d="M4145 1215 c-3 -26 -4 -49 -2 -51 3 -3 8 16 12 41 3 26 4 49 2 51 -3 3 -8 -16 -12 -41z"/>
</g>
<g id="layer104" fill="#8da2ac" stroke="none">
<path d="M823 4063 c-306 -1994 -375 -2454 -372 -2457 2 -2 362 -59 799 -126 437 -66 1135 -173 1550 -237 415 -63 757 -117 759 -119 10 -9 -23 -164 -49 -233 l-31 -79 -87 -32 c-153 -56 -430 -100 -633 -100 -57 0 -59 -1 -59 -26 0 -31 29 -44 183 -83 l110 -28 -63 -6 c-34 -4 -116 -7 -181 -7 -64 0 -124 -3 -133 -6 -9 -4 -16 -18 -16 -34 0 -24 8 -31 68 -58 171 -79 401 -116 717 -117 218 0 236 2 349 29 159 37 266 75 412 147 79 38 128 68 139 86 29 44 97 114 126 129 16 8 48 14 73 14 39 0 49 -4 72 -34 l27 -34 104 36 c57 20 103 41 103 48 0 10 -84 256 -147 432 -30 84 -14 80 -160 36 -81 -25 -82 -25 -77 -53 5 -24 -1 -36 -29 -68 -35 -38 -36 -38 -109 -37 -59 0 -84 6 -131 28 -61 30 -138 106 -171 170 l-19 36 76 457 c204 1229 330 2035 319 2042 -9 5 -889 147 -1163 188 l-37 5 30 -108 c17 -60 31 -110 32 -111 1 -1 56 -11 121 -21 709 -114 785 -127 785 -141 0 -33 -222 -1418 -229 -1432 -5 -8 -23 -107 -41 -220 -17 -112 -34 -211 -37 -219 -2 -8 -45 113 -95 270 -50 157 -92 286 -93 288 -2 2 -70 -18 -153 -44 l-149 -47 98 -296 c93 -280 117 -367 137 -496 9 -53 8 -55 -13 -55 -13 0 -425 63 -916 140 -492 77 -1126 177 -1409 221 -283 44 -516 82 -518 84 -1 1 27 193 62 426 36 233 115 750 176 1149 61 398 113 726 115 728 2 2 351 -51 775 -118 424 -68 773 -121 775 -118 3 3 -16 54 -43 114 l-48 108 -799 128 c-440 70 -809 127 -821 128 -19 0 -23 -17 -61 -267z"/>
<path d="M1410 3925 c0 -42 38 -477 42 -480 3 -3 100 35 251 99 l39 16 -158 187 c-86 104 -161 192 -165 198 -5 5 -9 -3 -9 -20z"/>
<path d="M3672 3499 c-32 -55 -116 -115 -212 -150 -108 -39 -120 -46 -120 -69 0 -33 70 -273 87 -300 23 -35 55 -59 77 -60 27 0 108 54 150 100 74 82 102 176 93 314 -6 86 -29 190 -45 200 -4 2 -18 -13 -30 -35z"/>
<path d="M1645 3404 c-71 -30 -134 -59 -139 -64 -5 -5 3 -37 19 -77 16 -37 72 -176 125 -308 163 -401 242 -590 250 -598 4 -5 69 17 145 49 158 66 150 47 81 202 -40 89 -74 173 -275 684 -36 92 -68 168 -71 167 -3 0 -63 -25 -135 -55z"/>
<path d="M1195 3108 c-7 -25 -38 -289 -33 -293 6 -7 450 -77 455 -72 5 6 -127 337 -136 337 -3 0 -58 9 -121 20 -135 23 -159 24 -165 8z"/>
<path d="M2106 2943 c8 -21 38 -94 66 -163 27 -69 53 -128 57 -132 5 -6 318 -60 403 -70 23 -3 41 15 142 132 64 74 116 138 116 143 0 4 -6 7 -12 7 -7 0 -181 27 -387 60 -206 33 -381 60 -388 60 -11 0 -10 -8 3 -37z"/>
<path d="M2901 2698 c-462 -541 -684 -806 -693 -828 -19 -49 5 -91 83 -148 74 -53 105 -62 145 -39 12 7 158 172 324 367 166 195 326 383 355 416 l54 62 -67 156 c-37 86 -69 156 -73 156 -3 0 -61 -64 -128 -142z"/>
<path d="M3490 2736 c0 -9 19 -83 41 -165 l42 -148 60 -7 c33 -3 62 -4 64 -3 3 4 37 191 47 265 6 42 -1 50 -38 43 -9 -2 -140 16 -188 25 -21 4 -28 2 -28 -10z"/>
<path d="M2083 2308 l-142 -59 19 -47 c41 -103 51 -121 76 -141 37 -29 63 -26 148 13 116 53 128 88 73 218 l-32 76 -142 -60z"/>
</g>
<g id="layer105" fill="#f4f6f7" stroke="none">
<path d="M752 3598 c-62 -403 -155 -1016 -208 -1361 -53 -345 -95 -630 -93 -631 2 -2 375 -60 829 -130 454 -69 1150 -175 1547 -236 l723 -111 112 36 c62 20 151 49 197 64 l85 27 37 225 c275 1686 370 2292 361 2298 -17 10 -951 155 -958 149 -6 -6 44 -197 55 -210 3 -4 156 -31 339 -60 311 -49 332 -54 332 -73 -1 -11 -52 -342 -114 -735 l-114 -714 63 -209 63 -208 -34 -202 c-18 -111 -34 -204 -34 -207 -1 -4 -64 171 -122 335 -11 33 -62 189 -112 346 l-92 286 -147 -45 c-81 -25 -147 -51 -147 -57 0 -6 43 -139 95 -295 84 -251 118 -376 140 -513 6 -35 5 -37 -17 -32 -13 3 -396 63 -853 135 -1533 239 -1989 311 -1993 314 -5 5 346 2297 353 2304 3 3 349 -50 770 -117 422 -67 770 -121 774 -119 5 2 -13 52 -39 113 l-47 110 -804 127 c-442 70 -811 127 -819 128 -13 0 -35 -126 -128 -732z"/>
<path d="M1410 3925 c0 -38 39 -477 42 -481 6 -5 278 111 278 119 0 7 -234 293 -312 382 -4 5 -8 -4 -8 -20z"/>
<path d="M3666 3490 c-23 -34 -78 -83 -124 -109 -10 -6 -1 -49 40 -195 l52 -189 33 38 c58 67 77 134 77 265 0 112 -22 230 -43 230 -5 0 -20 -18 -35 -40z"/>
<path d="M1645 3403 c-71 -30 -134 -58 -139 -63 -5 -5 0 -31 13 -62 21 -48 120 -290 306 -748 37 -91 71 -169 75 -173 4 -5 69 17 144 49 161 67 153 41 67 236 -32 73 -85 203 -119 288 -33 85 -93 237 -132 337 -39 101 -75 185 -78 187 -4 2 -65 -21 -137 -51z"/>
<path d="M1195 3098 c-6 -31 -35 -248 -35 -269 0 -14 37 -22 226 -53 125 -20 229 -35 230 -33 3 3 -123 327 -130 334 -3 3 -253 43 -271 43 -8 0 -17 -10 -20 -22z"/>
<path d="M2157 2818 c35 -90 68 -166 72 -170 5 -6 309 -58 402 -70 22 -2 42 16 142 132 65 74 117 137 117 140 0 5 -767 131 -792 130 -3 0 23 -73 59 -162z"/>
<path d="M2902 2698 c-569 -668 -692 -816 -697 -840 -10 -44 19 -89 92 -140 68 -49 100 -57 139 -35 12 7 158 172 324 367 166 195 324 381 351 412 27 31 49 62 49 68 0 14 -118 292 -129 303 -4 4 -62 -57 -129 -135z"/>
<path d="M3716 2698 c3 -13 10 -30 15 -38 7 -13 8 -13 9 0 0 8 3 25 6 38 5 18 2 22 -16 22 -18 0 -20 -4 -14 -22z"/>
<path d="M3500 2706 c0 -17 74 -275 78 -272 2 3 -13 65 -33 138 -34 121 -45 155 -45 134z"/>
<path d="M2076 2305 c-72 -31 -131 -56 -132 -58 -8 -8 69 -166 91 -184 35 -31 61 -29 148 11 78 35 107 64 107 106 0 34 -60 180 -74 180 -6 0 -69 -25 -140 -55z"/>
<path d="M4585 1235 c-5 -2 -49 -16 -97 -30 -86 -26 -87 -26 -82 -54 5 -22 -1 -36 -28 -67 -28 -33 -29 -37 -8 -23 14 9 32 30 42 48 l16 32 15 -48 c49 -153 116 -361 122 -383 l8 -25 -24 20 c-18 15 -16 11 6 -16 l30 -36 103 36 c56 19 102 40 102 47 0 6 -27 89 -60 185 -118 339 -112 326 -145 314z"/>
<path d="M3945 963 c-11 -3 -116 -36 -232 -74 -117 -39 -218 -67 -224 -63 -7 4 -9 3 -6 -3 9 -15 -77 -118 -128 -153 -143 -98 -257 -128 -520 -136 -235 -7 -235 -7 -235 -43 0 -25 7 -31 68 -59 171 -79 401 -116 717 -117 218 0 236 2 349 29 183 43 356 109 493 187 37 21 51 35 45 42 -5 7 -29 75 -53 152 -39 123 -49 145 -84 181 -52 51 -123 73 -190 57z"/>
</g>


</svg>